<svg width="189" height="41" viewBox="0 0 189 41" fill="none" xmlns="http://www.w3.org/2000/svg">
<path d="M46.0356 12.325L44.4376 13.991V17H41.7006V5.1H44.4376V10.659L49.7076 5.1H52.7676L47.8376 10.404L53.0566 17H49.8436L46.0356 12.325ZM63.0293 7.854V17H60.5133V15.912C60.162 16.3087 59.7426 16.6147 59.2553 16.83C58.768 17.034 58.241 17.136 57.6743 17.136C56.473 17.136 55.521 16.7903 54.8183 16.099C54.1156 15.4077 53.7643 14.382 53.7643 13.022V7.854H56.4163V12.631C56.4163 14.1043 57.034 14.841 58.2693 14.841C58.904 14.841 59.414 14.637 59.7993 14.229C60.1846 13.8097 60.3773 13.192 60.3773 12.376V7.854H63.0293ZM74.8022 4.386V17H72.2692V15.946C71.6119 16.7393 70.6599 17.136 69.4132 17.136C68.5519 17.136 67.7699 16.9433 67.0672 16.558C66.3759 16.1727 65.8319 15.623 65.4352 14.909C65.0385 14.195 64.8402 13.3677 64.8402 12.427C64.8402 11.4863 65.0385 10.659 65.4352 9.945C65.8319 9.231 66.3759 8.68133 67.0672 8.296C67.7699 7.91067 68.5519 7.718 69.4132 7.718C70.5805 7.718 71.4929 8.08633 72.1502 8.823V4.386H74.8022ZM69.8722 14.96C70.5409 14.96 71.0962 14.7333 71.5382 14.28C71.9802 13.8153 72.2012 13.1977 72.2012 12.427C72.2012 11.6563 71.9802 11.0443 71.5382 10.591C71.0962 10.1263 70.5409 9.894 69.8722 9.894C69.1922 9.894 68.6312 10.1263 68.1892 10.591C67.7472 11.0443 67.5262 11.6563 67.5262 12.427C67.5262 13.1977 67.7472 13.8153 68.1892 14.28C68.6312 14.7333 69.1922 14.96 69.8722 14.96ZM86.3347 7.854L82.2037 17.561C81.7844 18.615 81.263 19.3573 80.6397 19.788C80.0277 20.2187 79.2854 20.434 78.4127 20.434C77.9367 20.434 77.4664 20.3603 77.0017 20.213C76.537 20.0657 76.1574 19.8617 75.8627 19.601L76.8317 17.714C77.0357 17.8953 77.268 18.037 77.5287 18.139C77.8007 18.241 78.067 18.292 78.3277 18.292C78.6904 18.292 78.985 18.2013 79.2117 18.02C79.4384 17.85 79.6424 17.561 79.8237 17.153L79.8577 17.068L75.8967 7.854H78.6337L81.2007 14.059L83.7847 7.854H86.3347ZM101.666 7.854V15.47C101.666 17.1473 101.23 18.394 100.357 19.21C99.4847 20.026 98.2097 20.434 96.5323 20.434C95.6483 20.434 94.8097 20.3263 94.0163 20.111C93.223 19.8957 92.5657 19.584 92.0443 19.176L93.0983 17.272C93.4837 17.5893 93.971 17.8387 94.5603 18.02C95.1497 18.2127 95.739 18.309 96.3283 18.309C97.2463 18.309 97.9207 18.0993 98.3513 17.68C98.7933 17.272 99.0143 16.6487 99.0143 15.81V15.419C98.323 16.1783 97.3597 16.558 96.1243 16.558C95.2857 16.558 94.515 16.3767 93.8123 16.014C93.121 15.64 92.5713 15.1187 92.1633 14.45C91.7553 13.7813 91.5513 13.0107 91.5513 12.138C91.5513 11.2653 91.7553 10.4947 92.1633 9.826C92.5713 9.15733 93.121 8.64167 93.8123 8.279C94.515 7.905 95.2857 7.718 96.1243 7.718C97.4503 7.718 98.459 8.15433 99.1503 9.027V7.854H101.666ZM96.6513 14.382C97.354 14.382 97.9263 14.178 98.3683 13.77C98.8217 13.3507 99.0483 12.8067 99.0483 12.138C99.0483 11.4693 98.8217 10.931 98.3683 10.523C97.9263 10.1037 97.354 9.894 96.6513 9.894C95.9487 9.894 95.3707 10.1037 94.9173 10.523C94.464 10.931 94.2373 11.4693 94.2373 12.138C94.2373 12.8067 94.464 13.3507 94.9173 13.77C95.3707 14.178 95.9487 14.382 96.6513 14.382ZM108.487 17.136C107.523 17.136 106.656 16.9377 105.886 16.541C105.126 16.133 104.531 15.572 104.101 14.858C103.67 14.144 103.455 13.3337 103.455 12.427C103.455 11.5203 103.67 10.71 104.101 9.996C104.531 9.282 105.126 8.72667 105.886 8.33C106.656 7.922 107.523 7.718 108.487 7.718C109.45 7.718 110.311 7.922 111.071 8.33C111.83 8.72667 112.425 9.282 112.856 9.996C113.286 10.71 113.502 11.5203 113.502 12.427C113.502 13.3337 113.286 14.144 112.856 14.858C112.425 15.572 111.83 16.133 111.071 16.541C110.311 16.9377 109.45 17.136 108.487 17.136ZM108.487 14.96C109.167 14.96 109.722 14.7333 110.153 14.28C110.595 13.8153 110.816 13.1977 110.816 12.427C110.816 11.6563 110.595 11.0443 110.153 10.591C109.722 10.1263 109.167 9.894 108.487 9.894C107.807 9.894 107.246 10.1263 106.804 10.591C106.362 11.0443 106.141 11.6563 106.141 12.427C106.141 13.1977 106.362 13.8153 106.804 14.28C107.246 14.7333 107.807 14.96 108.487 14.96ZM120.089 7.854H122.741V17H120.089V7.854ZM121.415 6.579C120.927 6.579 120.531 6.43733 120.225 6.154C119.919 5.87067 119.766 5.51933 119.766 5.1C119.766 4.68067 119.919 4.32933 120.225 4.046C120.531 3.76267 120.927 3.621 121.415 3.621C121.902 3.621 122.299 3.757 122.605 4.029C122.911 4.301 123.064 4.641 123.064 5.049C123.064 5.491 122.911 5.85933 122.605 6.154C122.299 6.43733 121.902 6.579 121.415 6.579ZM130.761 7.718C131.894 7.718 132.807 8.058 133.498 8.738C134.201 9.418 134.552 10.4267 134.552 11.764V17H131.9V12.172C131.9 11.4467 131.741 10.9083 131.424 10.557C131.107 10.1943 130.648 10.013 130.047 10.013C129.378 10.013 128.846 10.2227 128.449 10.642C128.052 11.05 127.854 11.662 127.854 12.478V17H125.202V7.854H127.735V8.925C128.086 8.53967 128.523 8.245 129.044 8.041C129.565 7.82567 130.138 7.718 130.761 7.718Z" fill="white"/>
<path d="M147.244 17.204C145.544 17.204 144.218 16.7337 143.266 15.793C142.326 14.8523 141.855 13.5093 141.855 11.764V5.1H144.609V11.662C144.609 13.7927 145.493 14.858 147.261 14.858C148.123 14.858 148.78 14.603 149.233 14.093C149.687 13.5717 149.913 12.7613 149.913 11.662V5.1H152.633V11.764C152.633 13.5093 152.157 14.8523 151.205 15.793C150.265 16.7337 148.944 17.204 147.244 17.204ZM162.943 14.45H157.418L156.364 17H153.542L158.846 5.1H161.566L166.887 17H163.997L162.943 14.45ZM162.076 12.359L160.189 7.803L158.302 12.359H162.076Z" fill="#E7EA53"/>
<path d="M50.895 26.9416V34.2266H49.405V30.0366C49.405 29.9399 49.4067 29.8349 49.41 29.7216C49.4167 29.6082 49.4267 29.4932 49.44 29.3766L47.505 33.1216C47.445 33.2382 47.3633 33.3266 47.26 33.3866C47.16 33.4466 47.045 33.4766 46.915 33.4766H46.685C46.555 33.4766 46.4383 33.4466 46.335 33.3866C46.235 33.3266 46.155 33.2382 46.095 33.1216L44.16 29.3666C44.17 29.4866 44.1783 29.6049 44.185 29.7216C44.1917 29.8349 44.195 29.9399 44.195 30.0366V34.2266H42.705V26.9416H43.995C44.0683 26.9416 44.1317 26.9432 44.185 26.9466C44.2417 26.9499 44.2917 26.9599 44.335 26.9766C44.3783 26.9932 44.4167 27.0199 44.45 27.0566C44.4867 27.0899 44.5217 27.1382 44.555 27.2016L46.43 30.8966C46.4967 31.0232 46.56 31.1549 46.62 31.2916C46.6833 31.4282 46.7433 31.5682 46.8 31.7116C46.8567 31.5649 46.915 31.4216 46.975 31.2816C47.0383 31.1416 47.105 31.0082 47.175 30.8816L49.045 27.2016C49.0783 27.1382 49.1117 27.0899 49.145 27.0566C49.1817 27.0199 49.2217 26.9932 49.265 26.9766C49.3083 26.9599 49.3567 26.9499 49.41 26.9466C49.4667 26.9432 49.5317 26.9416 49.605 26.9416H50.895ZM54.6922 32.1166C54.3822 32.1299 54.1272 32.1566 53.9272 32.1966C53.7272 32.2366 53.5689 32.2866 53.4522 32.3466C53.3355 32.4066 53.2539 32.4749 53.2072 32.5516C53.1639 32.6282 53.1422 32.7116 53.1422 32.8016C53.1422 32.9782 53.1905 33.1032 53.2872 33.1766C53.3839 33.2466 53.5255 33.2816 53.7122 33.2816C53.9122 33.2816 54.0872 33.2466 54.2372 33.1766C54.3872 33.1066 54.5389 32.9932 54.6922 32.8366V32.1166ZM51.9022 29.7616C52.2155 29.4849 52.5622 29.2799 52.9422 29.1466C53.3255 29.0099 53.7355 28.9416 54.1722 28.9416C54.4855 28.9416 54.7672 28.9932 55.0172 29.0966C55.2705 29.1966 55.4839 29.3382 55.6572 29.5216C55.8339 29.7016 55.9689 29.9166 56.0622 30.1666C56.1555 30.4166 56.2022 30.6899 56.2022 30.9866V34.2266H55.4922C55.3455 34.2266 55.2339 34.2066 55.1572 34.1666C55.0839 34.1266 55.0222 34.0432 54.9722 33.9166L54.8622 33.6316C54.7322 33.7416 54.6072 33.8382 54.4872 33.9216C54.3672 34.0049 54.2422 34.0766 54.1122 34.1366C53.9855 34.1932 53.8489 34.2349 53.7022 34.2616C53.5589 34.2916 53.3989 34.3066 53.2222 34.3066C52.9855 34.3066 52.7705 34.2766 52.5772 34.2166C52.3839 34.1532 52.2189 34.0616 52.0822 33.9416C51.9489 33.8216 51.8455 33.6732 51.7722 33.4966C51.6989 33.3166 51.6622 33.1099 51.6622 32.8766C51.6622 32.6899 51.7089 32.5016 51.8022 32.3116C51.8955 32.1182 52.0572 31.9432 52.2872 31.7866C52.5172 31.6266 52.8272 31.4932 53.2172 31.3866C53.6072 31.2799 54.0989 31.2199 54.6922 31.2066V30.9866C54.6922 30.6832 54.6289 30.4649 54.5022 30.3316C54.3789 30.1949 54.2022 30.1266 53.9722 30.1266C53.7889 30.1266 53.6389 30.1466 53.5222 30.1866C53.4055 30.2266 53.3005 30.2716 53.2072 30.3216C53.1172 30.3716 53.0289 30.4166 52.9422 30.4566C52.8555 30.4966 52.7522 30.5166 52.6322 30.5166C52.5255 30.5166 52.4355 30.4899 52.3622 30.4366C52.2889 30.3832 52.2289 30.3199 52.1822 30.2466L51.9022 29.7616ZM61.893 29.0416V34.2266H60.343V32.0366H58.743V34.2266H57.193V29.0416H58.743V30.9266H60.343V29.0416H61.893ZM66.3049 33.1616V30.1866H65.3499C65.3199 30.5532 65.2816 30.8882 65.2349 31.1916C65.1916 31.4949 65.1416 31.7682 65.0849 32.0116C65.0283 32.2549 64.9649 32.4716 64.8949 32.6616C64.8283 32.8516 64.7566 33.0182 64.6799 33.1616H66.3049ZM68.7599 33.1166V35.4866C68.7599 35.6199 68.7183 35.7266 68.6349 35.8066C68.5549 35.8866 68.4516 35.9266 68.3249 35.9266H67.3499V34.2266H63.8949V35.5066C63.8949 35.5599 63.8866 35.6116 63.8699 35.6616C63.8533 35.7116 63.8266 35.7566 63.7899 35.7966C63.7566 35.8366 63.7133 35.8682 63.6599 35.8916C63.6066 35.9149 63.5433 35.9266 63.4699 35.9266H62.4849V33.1616H62.6099C62.7233 33.1616 62.8333 33.1499 62.9399 33.1266C63.0499 33.0999 63.1533 33.0416 63.2499 32.9516C63.3499 32.8616 63.4416 32.7282 63.5249 32.5516C63.6116 32.3749 63.6899 32.1349 63.7599 31.8316C63.8333 31.5249 63.8966 31.1449 63.9499 30.6916C64.0066 30.2349 64.0516 29.6849 64.0849 29.0416H67.8049V33.1166H68.7599ZM70.9793 32.8166C71.096 32.9432 71.2226 33.0332 71.3593 33.0866C71.496 33.1399 71.6393 33.1666 71.7893 33.1666C71.9326 33.1666 72.0643 33.1382 72.1843 33.0816C72.3043 33.0249 72.4076 32.9349 72.4943 32.8116C72.5843 32.6849 72.6543 32.5216 72.7043 32.3216C72.7543 32.1216 72.7793 31.8782 72.7793 31.5916C72.7793 31.3182 72.7593 31.0882 72.7193 30.9016C72.6793 30.7149 72.6226 30.5649 72.5493 30.4516C72.4793 30.3349 72.3943 30.2516 72.2943 30.2016C72.1943 30.1516 72.0826 30.1266 71.9593 30.1266C71.7326 30.1266 71.546 30.1682 71.3993 30.2516C71.2526 30.3349 71.1126 30.4566 70.9793 30.6166V32.8166ZM70.8843 29.6816C71.0876 29.4649 71.3176 29.2882 71.5743 29.1516C71.8343 29.0116 72.1426 28.9416 72.4993 28.9416C72.7693 28.9416 73.0193 29.0016 73.2493 29.1216C73.4793 29.2416 73.6776 29.4149 73.8443 29.6416C74.011 29.8682 74.141 30.1466 74.2343 30.4766C74.331 30.8032 74.3793 31.1749 74.3793 31.5916C74.3793 31.9816 74.3243 32.3416 74.2143 32.6716C74.1076 33.0016 73.956 33.2882 73.7593 33.5316C73.566 33.7749 73.3326 33.9649 73.0593 34.1016C72.7893 34.2382 72.4893 34.3066 72.1593 34.3066C71.8893 34.3066 71.6626 34.2682 71.4793 34.1916C71.296 34.1149 71.1293 34.0116 70.9793 33.8816V35.8716H69.4293V29.0416H70.3893C70.5826 29.0416 70.7093 29.1282 70.7693 29.3016L70.8843 29.6816ZM79.9402 29.0416L77.1702 35.5716C77.1236 35.6749 77.0669 35.7499 77.0002 35.7966C76.9336 35.8466 76.8269 35.8716 76.6802 35.8716H75.5202L76.5202 33.7716L74.4502 29.0416H75.8202C75.9402 29.0416 76.0319 29.0682 76.0952 29.1216C76.1619 29.1749 76.2102 29.2382 76.2402 29.3116L77.0902 31.5466C77.1702 31.7499 77.2352 31.9582 77.2852 32.1716C77.3219 32.0649 77.3586 31.9582 77.3952 31.8516C77.4319 31.7449 77.4702 31.6399 77.5102 31.5366L78.2802 29.3116C78.3102 29.2349 78.3636 29.1716 78.4402 29.1216C78.5169 29.0682 78.6002 29.0416 78.6902 29.0416H79.9402ZM85.2461 29.0416V34.2266H83.6961V31.5866C83.6961 31.4999 83.7011 31.4066 83.7111 31.3066C83.7211 31.2032 83.7344 31.0982 83.7511 30.9916C83.6711 31.1716 83.5861 31.3232 83.4961 31.4466C83.4894 31.4532 83.4611 31.4932 83.4111 31.5666C83.3644 31.6399 83.3028 31.7349 83.2261 31.8516C83.1528 31.9649 83.0678 32.0932 82.9711 32.2366C82.8778 32.3799 82.7811 32.5266 82.6811 32.6766C82.4478 33.0266 82.1861 33.4216 81.8961 33.8616C81.8661 33.9049 81.8311 33.9499 81.7911 33.9966C81.7544 34.0399 81.7128 34.0799 81.6661 34.1166C81.6194 34.1499 81.5694 34.1782 81.5161 34.2016C81.4628 34.2216 81.4061 34.2316 81.3461 34.2316H80.3961V29.0466H81.9461V31.6866C81.9461 31.7699 81.9411 31.8632 81.9311 31.9666C81.9211 32.0699 81.9078 32.1749 81.8911 32.2816C81.9711 32.1016 82.0561 31.9499 82.1461 31.8266C82.1494 31.8199 82.1761 31.7799 82.2261 31.7066C82.2761 31.6332 82.3378 31.5399 82.4111 31.4266C82.4878 31.3099 82.5728 31.1799 82.6661 31.0366C82.7628 30.8932 82.8611 30.7466 82.9611 30.5966C83.1944 30.2466 83.4561 29.8516 83.7461 29.4116C83.7761 29.3682 83.8094 29.3249 83.8461 29.2816C83.8861 29.2349 83.9294 29.1949 83.9761 29.1616C84.0228 29.1249 84.0728 29.0966 84.1261 29.0766C84.1794 29.0532 84.2361 29.0416 84.2961 29.0416H85.2461ZM82.9011 27.6866C83.0144 27.6866 83.1078 27.6749 83.1811 27.6516C83.2544 27.6282 83.3111 27.5882 83.3511 27.5316C83.3944 27.4749 83.4228 27.3999 83.4361 27.3066C83.4528 27.2099 83.4611 27.0882 83.4611 26.9416H84.3811C84.4344 26.9416 84.4794 26.9549 84.5161 26.9816C84.5561 27.0049 84.5878 27.0366 84.6111 27.0766C84.6378 27.1132 84.6578 27.1566 84.6711 27.2066C84.6844 27.2532 84.6911 27.3016 84.6911 27.3516C84.6911 27.5282 84.6461 27.6866 84.5561 27.8266C84.4694 27.9632 84.3461 28.0816 84.1861 28.1816C84.0294 28.2782 83.8411 28.3532 83.6211 28.4066C83.4044 28.4566 83.1644 28.4816 82.9011 28.4816C82.6378 28.4816 82.3961 28.4566 82.1761 28.4066C81.9594 28.3532 81.7711 28.2782 81.6111 28.1816C81.4544 28.0816 81.3311 27.9632 81.2411 27.8266C81.1544 27.6866 81.1111 27.5282 81.1111 27.3516C81.1111 27.3016 81.1178 27.2532 81.1311 27.2066C81.1444 27.1566 81.1628 27.1132 81.1861 27.0766C81.2128 27.0366 81.2444 27.0049 81.2811 26.9816C81.3211 26.9549 81.3678 26.9416 81.4211 26.9416H82.3411C82.3411 27.0882 82.3478 27.2099 82.3611 27.3066C82.3778 27.3999 82.4061 27.4749 82.4461 27.5316C82.4894 27.5882 82.5461 27.6282 82.6161 27.6516C82.6894 27.6749 82.7844 27.6866 82.9011 27.6866ZM94.884 26.9416L91.954 33.1666C91.8407 33.3999 91.719 33.5899 91.589 33.7366C91.459 33.8832 91.319 33.9999 91.169 34.0866C91.0223 34.1699 90.8657 34.2266 90.699 34.2566C90.5323 34.2899 90.354 34.3066 90.164 34.3066C89.8707 34.3066 89.6623 34.2799 89.539 34.2266C89.4157 34.1766 89.354 34.1016 89.354 34.0016V32.9766H89.774C89.8373 32.9766 89.904 32.9716 89.974 32.9616C90.0473 32.9516 90.1207 32.9299 90.194 32.8966C90.2673 32.8599 90.339 32.8082 90.409 32.7416C90.4823 32.6716 90.549 32.5782 90.609 32.4616L90.839 32.0116L87.914 26.9416H89.504C89.6507 26.9416 89.7657 26.9766 89.849 27.0466C89.9357 27.1132 90.0073 27.1999 90.064 27.3066L91.144 29.4766C91.234 29.6399 91.314 29.8032 91.384 29.9666C91.454 30.1299 91.5157 30.2949 91.569 30.4616C91.619 30.2949 91.6773 30.1299 91.744 29.9666C91.8107 29.8032 91.884 29.6399 91.964 29.4766L92.934 27.3066C92.954 27.2632 92.9807 27.2199 93.014 27.1766C93.0507 27.1332 93.0907 27.0949 93.134 27.0616C93.1807 27.0249 93.2323 26.9966 93.289 26.9766C93.349 26.9532 93.414 26.9416 93.484 26.9416H94.884ZM97.5574 29.4316C97.6341 29.3149 97.7358 29.2216 97.8624 29.1516C97.9924 29.0782 98.1274 29.0416 98.2674 29.0416H99.4924L98.4024 30.9266C98.3191 31.0666 98.2341 31.1799 98.1474 31.2666C98.0608 31.3532 97.9558 31.4199 97.8324 31.4666C98.0024 31.5232 98.1408 31.6032 98.2474 31.7066C98.3541 31.8099 98.4491 31.9399 98.5324 32.0966L99.6174 34.2266H98.5474C98.4108 34.2266 98.2908 34.2166 98.1874 34.1966C98.0874 34.1732 97.9974 34.1399 97.9174 34.0966C97.8374 34.0532 97.7674 33.9999 97.7074 33.9366C97.6474 33.8732 97.5924 33.7999 97.5424 33.7166L96.9924 32.4116C96.9424 32.2949 96.8691 32.2099 96.7724 32.1566C96.6791 32.0999 96.5708 32.0716 96.4474 32.0716H96.0574V34.2266H94.5074V29.0416H96.0574V31.0966H96.3774C96.5174 31.0966 96.6208 31.0749 96.6874 31.0316C96.7574 30.9849 96.8191 30.9082 96.8724 30.8016L97.5574 29.4316ZM101.731 32.8166C101.848 32.9432 101.975 33.0332 102.111 33.0866C102.248 33.1399 102.391 33.1666 102.541 33.1666C102.685 33.1666 102.816 33.1382 102.936 33.0816C103.056 33.0249 103.16 32.9349 103.246 32.8116C103.336 32.6849 103.406 32.5216 103.456 32.3216C103.506 32.1216 103.531 31.8782 103.531 31.5916C103.531 31.3182 103.511 31.0882 103.471 30.9016C103.431 30.7149 103.375 30.5649 103.301 30.4516C103.231 30.3349 103.146 30.2516 103.046 30.2016C102.946 30.1516 102.835 30.1266 102.711 30.1266C102.485 30.1266 102.298 30.1682 102.151 30.2516C102.005 30.3349 101.865 30.4566 101.731 30.6166V32.8166ZM101.636 29.6816C101.84 29.4649 102.07 29.2882 102.326 29.1516C102.586 29.0116 102.895 28.9416 103.251 28.9416C103.521 28.9416 103.771 29.0016 104.001 29.1216C104.231 29.2416 104.43 29.4149 104.596 29.6416C104.763 29.8682 104.893 30.1466 104.986 30.4766C105.083 30.8032 105.131 31.1749 105.131 31.5916C105.131 31.9816 105.076 32.3416 104.966 32.6716C104.86 33.0016 104.708 33.2882 104.511 33.5316C104.318 33.7749 104.085 33.9649 103.811 34.1016C103.541 34.2382 103.241 34.3066 102.911 34.3066C102.641 34.3066 102.415 34.2682 102.231 34.1916C102.048 34.1149 101.881 34.0116 101.731 33.8816V35.8716H100.181V29.0416H101.141C101.335 29.0416 101.461 29.1282 101.521 29.3016L101.636 29.6816ZM108.598 32.1166C108.288 32.1299 108.033 32.1566 107.833 32.1966C107.633 32.2366 107.475 32.2866 107.358 32.3466C107.242 32.4066 107.16 32.4749 107.113 32.5516C107.07 32.6282 107.048 32.7116 107.048 32.8016C107.048 32.9782 107.097 33.1032 107.193 33.1766C107.29 33.2466 107.432 33.2816 107.618 33.2816C107.818 33.2816 107.993 33.2466 108.143 33.1766C108.293 33.1066 108.445 32.9932 108.598 32.8366V32.1166ZM105.808 29.7616C106.122 29.4849 106.468 29.2799 106.848 29.1466C107.232 29.0099 107.642 28.9416 108.078 28.9416C108.392 28.9416 108.673 28.9932 108.923 29.0966C109.177 29.1966 109.39 29.3382 109.563 29.5216C109.74 29.7016 109.875 29.9166 109.968 30.1666C110.062 30.4166 110.108 30.6899 110.108 30.9866V34.2266H109.398C109.252 34.2266 109.14 34.2066 109.063 34.1666C108.99 34.1266 108.928 34.0432 108.878 33.9166L108.768 33.6316C108.638 33.7416 108.513 33.8382 108.393 33.9216C108.273 34.0049 108.148 34.0766 108.018 34.1366C107.892 34.1932 107.755 34.2349 107.608 34.2616C107.465 34.2916 107.305 34.3066 107.128 34.3066C106.892 34.3066 106.677 34.2766 106.483 34.2166C106.29 34.1532 106.125 34.0616 105.988 33.9416C105.855 33.8216 105.752 33.6732 105.678 33.4966C105.605 33.3166 105.568 33.1099 105.568 32.8766C105.568 32.6899 105.615 32.5016 105.708 32.3116C105.802 32.1182 105.963 31.9432 106.193 31.7866C106.423 31.6266 106.733 31.4932 107.123 31.3866C107.513 31.2799 108.005 31.2199 108.598 31.2066V30.9866C108.598 30.6832 108.535 30.4649 108.408 30.3316C108.285 30.1949 108.108 30.1266 107.878 30.1266C107.695 30.1266 107.545 30.1466 107.428 30.1866C107.312 30.2266 107.207 30.2716 107.113 30.3216C107.023 30.3716 106.935 30.4166 106.848 30.4566C106.762 30.4966 106.658 30.5166 106.538 30.5166C106.432 30.5166 106.342 30.4899 106.268 30.4366C106.195 30.3832 106.135 30.3199 106.088 30.2466L105.808 29.7616ZM112.684 29.0416V34.2266H111.134V29.0416H112.684ZM111.844 27.7516C111.844 27.8582 111.823 27.9582 111.779 28.0516C111.736 28.1449 111.676 28.2266 111.599 28.2966C111.526 28.3632 111.439 28.4166 111.339 28.4566C111.243 28.4966 111.138 28.5166 111.024 28.5166C110.918 28.5166 110.816 28.4966 110.719 28.4566C110.626 28.4166 110.544 28.3632 110.474 28.2966C110.401 28.2266 110.343 28.1449 110.299 28.0516C110.256 27.9582 110.234 27.8582 110.234 27.7516C110.234 27.6416 110.256 27.5382 110.299 27.4416C110.343 27.3449 110.401 27.2616 110.474 27.1916C110.544 27.1182 110.626 27.0616 110.719 27.0216C110.816 26.9782 110.918 26.9566 111.024 26.9566C111.138 26.9566 111.243 26.9782 111.339 27.0216C111.439 27.0616 111.526 27.1182 111.599 27.1916C111.676 27.2616 111.736 27.3449 111.779 27.4416C111.823 27.5382 111.844 27.6416 111.844 27.7516ZM113.674 27.7516C113.674 27.8582 113.653 27.9582 113.609 28.0516C113.569 28.1449 113.513 28.2266 113.439 28.2966C113.366 28.3632 113.279 28.4166 113.179 28.4566C113.083 28.4966 112.978 28.5166 112.864 28.5166C112.754 28.5166 112.651 28.4966 112.554 28.4566C112.458 28.4166 112.373 28.3632 112.299 28.2966C112.226 28.2266 112.168 28.1449 112.124 28.0516C112.084 27.9582 112.064 27.8582 112.064 27.7516C112.064 27.6416 112.084 27.5382 112.124 27.4416C112.168 27.3449 112.226 27.2616 112.299 27.1916C112.373 27.1182 112.458 27.0616 112.554 27.0216C112.651 26.9782 112.754 26.9566 112.864 26.9566C112.978 26.9566 113.083 26.9782 113.179 27.0216C113.279 27.0616 113.366 27.1182 113.439 27.1916C113.513 27.2616 113.569 27.3449 113.609 27.4416C113.653 27.5382 113.674 27.6416 113.674 27.7516ZM118.465 29.0416V34.2266H116.915V32.0366H115.315V34.2266H113.765V29.0416H115.315V30.9266H116.915V29.0416H118.465ZM121.907 28.9616C122.301 28.9616 122.659 29.0232 122.982 29.1466C123.306 29.2699 123.582 29.4466 123.812 29.6766C124.046 29.9066 124.226 30.1866 124.352 30.5166C124.482 30.8432 124.547 31.2116 124.547 31.6216C124.547 32.0349 124.482 32.4082 124.352 32.7416C124.226 33.0716 124.046 33.3532 123.812 33.5866C123.582 33.8166 123.306 33.9949 122.982 34.1216C122.659 34.2449 122.301 34.3066 121.907 34.3066C121.511 34.3066 121.149 34.2449 120.822 34.1216C120.499 33.9949 120.219 33.8166 119.982 33.5866C119.749 33.3532 119.567 33.0716 119.437 32.7416C119.311 32.4082 119.247 32.0349 119.247 31.6216C119.247 31.2116 119.311 30.8432 119.437 30.5166C119.567 30.1866 119.749 29.9066 119.982 29.6766C120.219 29.4466 120.499 29.2699 120.822 29.1466C121.149 29.0232 121.511 28.9616 121.907 28.9616ZM121.907 33.1566C122.264 33.1566 122.526 33.0316 122.692 32.7816C122.862 32.5282 122.947 32.1449 122.947 31.6316C122.947 31.1182 122.862 30.7366 122.692 30.4866C122.526 30.2366 122.264 30.1116 121.907 30.1116C121.541 30.1116 121.272 30.2366 121.102 30.4866C120.932 30.7366 120.847 31.1182 120.847 31.6316C120.847 32.1449 120.932 32.5282 121.102 32.7816C121.272 33.0316 121.541 33.1566 121.907 33.1566ZM130.183 33.1566C130.519 33.1566 130.764 33.0316 130.918 32.7816C131.074 32.5282 131.153 32.1449 131.153 31.6316C131.153 31.1182 131.074 30.7366 130.918 30.4866C130.764 30.2366 130.519 30.1116 130.183 30.1116C129.846 30.1116 129.599 30.2366 129.443 30.4866C129.289 30.7366 129.213 31.1182 129.213 31.6316C129.213 32.1449 129.289 32.5282 129.443 32.7816C129.599 33.0316 129.846 33.1566 130.183 33.1566ZM127.703 31.0566C127.753 30.7299 127.848 30.4382 127.988 30.1816C128.128 29.9216 128.303 29.7016 128.513 29.5216C128.726 29.3416 128.973 29.2032 129.253 29.1066C129.536 29.0099 129.846 28.9616 130.183 28.9616C130.566 28.9616 130.914 29.0232 131.228 29.1466C131.544 29.2699 131.814 29.4466 132.038 29.6766C132.264 29.9066 132.439 30.1866 132.563 30.5166C132.689 30.8432 132.753 31.2116 132.753 31.6216C132.753 32.0349 132.688 32.4082 132.558 32.7416C132.428 33.0716 132.248 33.3532 132.018 33.5866C131.788 33.8166 131.516 33.9949 131.203 34.1216C130.889 34.2449 130.549 34.3066 130.183 34.3066C129.833 34.3066 129.513 34.2566 129.223 34.1566C128.936 34.0566 128.686 33.9132 128.473 33.7266C128.263 33.5366 128.091 33.3066 127.958 33.0366C127.824 32.7632 127.736 32.4566 127.693 32.1166H126.878V34.2266H125.328V29.0416H126.878V31.0566H127.703ZM135.56 29.6266C135.764 29.4299 136.014 29.2699 136.31 29.1466C136.607 29.0232 136.965 28.9616 137.385 28.9616C137.712 28.9616 138.004 28.9999 138.26 29.0766C138.517 29.1532 138.734 29.2566 138.91 29.3866C139.09 29.5166 139.227 29.6682 139.32 29.8416C139.417 30.0116 139.465 30.1916 139.465 30.3816C139.465 30.4782 139.452 30.5782 139.425 30.6816C139.399 30.7816 139.354 30.8816 139.29 30.9816C139.23 31.0782 139.15 31.1699 139.05 31.2566C138.95 31.3399 138.827 31.4132 138.68 31.4766C138.807 31.5299 138.924 31.5949 139.03 31.6716C139.137 31.7482 139.229 31.8382 139.305 31.9416C139.382 32.0416 139.442 32.1549 139.485 32.2816C139.529 32.4082 139.55 32.5466 139.55 32.6966C139.55 32.9566 139.489 33.1866 139.365 33.3866C139.245 33.5866 139.085 33.7549 138.885 33.8916C138.689 34.0282 138.464 34.1316 138.21 34.2016C137.957 34.2716 137.7 34.3066 137.44 34.3066C137.307 34.3066 137.155 34.2932 136.985 34.2666C136.819 34.2432 136.645 34.1999 136.465 34.1366C136.285 34.0699 136.105 33.9799 135.925 33.8666C135.745 33.7499 135.575 33.5999 135.415 33.4166L135.865 32.8616C135.929 32.7716 136.022 32.7266 136.145 32.7266C136.239 32.7266 136.32 32.7499 136.39 32.7966C136.464 32.8432 136.542 32.8949 136.625 32.9516C136.709 33.0049 136.805 33.0549 136.915 33.1016C137.025 33.1449 137.165 33.1666 137.335 33.1666C137.592 33.1666 137.779 33.1099 137.895 32.9966C138.015 32.8799 138.075 32.7366 138.075 32.5666C138.075 32.3966 138.01 32.2666 137.88 32.1766C137.754 32.0832 137.534 32.0366 137.22 32.0366H136.635V31.0716H137.22C137.497 31.0716 137.705 31.0266 137.845 30.9366C137.985 30.8466 138.055 30.7232 138.055 30.5666C138.055 30.4166 137.994 30.3016 137.87 30.2216C137.747 30.1416 137.57 30.1016 137.34 30.1016C137.18 30.1016 137.045 30.1182 136.935 30.1516C136.825 30.1849 136.73 30.2216 136.65 30.2616C136.57 30.2982 136.499 30.3332 136.435 30.3666C136.375 30.3999 136.314 30.4166 136.25 30.4166C136.18 30.4166 136.12 30.4032 136.07 30.3766C136.02 30.3499 135.967 30.2932 135.91 30.2066L135.56 29.6266ZM147.381 29.0416V34.2266H145.831V32.0366H144.231V34.2266H142.681V29.0416H144.231V30.9266H145.831V29.0416H147.381ZM151.108 32.1166C150.798 32.1299 150.543 32.1566 150.343 32.1966C150.143 32.2366 149.985 32.2866 149.868 32.3466C149.752 32.4066 149.67 32.4749 149.623 32.5516C149.58 32.6282 149.558 32.7116 149.558 32.8016C149.558 32.9782 149.607 33.1032 149.703 33.1766C149.8 33.2466 149.942 33.2816 150.128 33.2816C150.328 33.2816 150.503 33.2466 150.653 33.1766C150.803 33.1066 150.955 32.9932 151.108 32.8366V32.1166ZM148.318 29.7616C148.632 29.4849 148.978 29.2799 149.358 29.1466C149.742 29.0099 150.152 28.9416 150.588 28.9416C150.902 28.9416 151.183 28.9932 151.433 29.0966C151.687 29.1966 151.9 29.3382 152.073 29.5216C152.25 29.7016 152.385 29.9166 152.478 30.1666C152.572 30.4166 152.618 30.6899 152.618 30.9866V34.2266H151.908C151.762 34.2266 151.65 34.2066 151.573 34.1666C151.5 34.1266 151.438 34.0432 151.388 33.9166L151.278 33.6316C151.148 33.7416 151.023 33.8382 150.903 33.9216C150.783 34.0049 150.658 34.0766 150.528 34.1366C150.402 34.1932 150.265 34.2349 150.118 34.2616C149.975 34.2916 149.815 34.3066 149.638 34.3066C149.402 34.3066 149.187 34.2766 148.993 34.2166C148.8 34.1532 148.635 34.0616 148.498 33.9416C148.365 33.8216 148.262 33.6732 148.188 33.4966C148.115 33.3166 148.078 33.1099 148.078 32.8766C148.078 32.6899 148.125 32.5016 148.218 32.3116C148.312 32.1182 148.473 31.9432 148.703 31.7866C148.933 31.6266 149.243 31.4932 149.633 31.3866C150.023 31.2799 150.515 31.2199 151.108 31.2066V30.9866C151.108 30.6832 151.045 30.4649 150.918 30.3316C150.795 30.1949 150.618 30.1266 150.388 30.1266C150.205 30.1266 150.055 30.1466 149.938 30.1866C149.822 30.2266 149.717 30.2716 149.623 30.3216C149.533 30.3716 149.445 30.4166 149.358 30.4566C149.272 30.4966 149.168 30.5166 149.048 30.5166C148.942 30.5166 148.852 30.4899 148.778 30.4366C148.705 30.3832 148.645 30.3199 148.598 30.2466L148.318 29.7616ZM159.824 29.0366V34.2266H158.424V31.7716C158.424 31.6449 158.431 31.5016 158.444 31.3416C158.457 31.1816 158.477 31.0299 158.504 30.8866L157.234 33.3466C157.141 33.5166 156.996 33.6016 156.799 33.6016H156.634C156.437 33.6016 156.292 33.5166 156.199 33.3466L154.924 30.8766C154.951 31.0232 154.971 31.1766 154.984 31.3366C155.001 31.4966 155.009 31.6416 155.009 31.7716V34.2266H153.609V29.0366H154.909C155.016 29.0366 155.121 29.0599 155.224 29.1066C155.331 29.1499 155.421 29.2382 155.494 29.3716L156.369 31.1466C156.436 31.2632 156.497 31.3899 156.554 31.5266C156.611 31.6599 156.664 31.7966 156.714 31.9366C156.764 31.7966 156.817 31.6599 156.874 31.5266C156.931 31.3899 156.992 31.2632 157.059 31.1466L157.939 29.3716C158.012 29.2349 158.101 29.1449 158.204 29.1016C158.311 29.0582 158.417 29.0366 158.524 29.0366H159.824ZM165.725 29.0416V34.2266H164.175V31.5866C164.175 31.4999 164.18 31.4066 164.19 31.3066C164.2 31.2032 164.213 31.0982 164.23 30.9916C164.15 31.1716 164.065 31.3232 163.975 31.4466C163.968 31.4532 163.94 31.4932 163.89 31.5666C163.843 31.6399 163.781 31.7349 163.705 31.8516C163.631 31.9649 163.546 32.0932 163.45 32.2366C163.356 32.3799 163.26 32.5266 163.16 32.6766C162.926 33.0266 162.665 33.4216 162.375 33.8616C162.345 33.9049 162.31 33.9499 162.27 33.9966C162.233 34.0399 162.191 34.0799 162.145 34.1166C162.098 34.1499 162.048 34.1782 161.995 34.2016C161.941 34.2216 161.885 34.2316 161.825 34.2316H160.875V29.0466H162.425V31.6866C162.425 31.7699 162.42 31.8632 162.41 31.9666C162.4 32.0699 162.386 32.1749 162.37 32.2816C162.45 32.1016 162.535 31.9499 162.625 31.8266C162.628 31.8199 162.655 31.7799 162.705 31.7066C162.755 31.6332 162.816 31.5399 162.89 31.4266C162.966 31.3099 163.051 31.1799 163.145 31.0366C163.241 30.8932 163.34 30.7466 163.44 30.5966C163.673 30.2466 163.935 29.8516 164.225 29.4116C164.255 29.3682 164.288 29.3249 164.325 29.2816C164.365 29.2349 164.408 29.1949 164.455 29.1616C164.501 29.1249 164.551 29.0966 164.605 29.0766C164.658 29.0532 164.715 29.0416 164.775 29.0416H165.725Z" fill="#E7EA53"/>
<path d="M16 36C7.16344 36 0 28.8366 0 20C0 11.1634 7.16344 4 16 4C24.8366 4 32 11.1634 32 20C32 28.8366 24.8366 36 16 36Z" fill="white"/>
<path d="M10.3028 19.8632C10.5324 20.2661 10.2356 21.0266 9.5555 21.3321L8.80113 21.5055C7.68924 21.7819 7.29966 21.7183 7.0699 21.3154L3.68056 15.3658C3.45104 14.9629 3.81632 14.3885 4.49638 14.083L5.26606 13.7371C5.94635 13.4316 6.68373 13.5105 6.91325 13.9134L10.3028 19.8632Z" fill="#006837"/>
<path d="M10.3028 20.685C10.5324 20.2821 10.2356 19.5216 9.5555 19.2161L8.80113 19.0427C7.68924 18.7663 7.29966 18.8299 7.0699 19.2329L3.68056 25.1824C3.45104 25.5853 3.81632 26.1597 4.49638 26.4653L5.26606 26.8111C5.94635 27.1167 6.68373 27.0377 6.91325 26.6348L10.3028 20.685Z" fill="#006837"/>
<path d="M21.0948 19.8632C20.8653 20.2661 21.1621 21.0266 21.8422 21.3321L22.5965 21.5055C23.7084 21.7819 24.098 21.7183 24.3278 21.3154L27.7171 15.3658C27.9466 14.9629 27.5814 14.3885 26.9013 14.083L26.1316 13.7371C25.4513 13.4316 24.7139 13.5105 24.4844 13.9134L21.0948 19.8632Z" fill="#006837"/>
<path d="M21.0948 20.685C20.8653 20.2821 21.1621 19.5216 21.8422 19.2161L22.5965 19.0427C23.7084 18.7663 24.098 18.8299 24.3278 19.2329L27.7171 25.1824C27.9466 25.5853 27.5814 26.1597 26.9013 26.4653L26.1316 26.8111C25.4513 27.1167 24.7139 27.0377 24.4844 26.6348L21.0948 20.685Z" fill="#006837"/>
<path d="M20.868 14.7041V9.56165C20.868 9.12399 20.7543 8.79586 20.527 8.57703C20.2996 8.3582 20.0007 8.2489 19.63 8.2489C19.2426 8.2489 18.9352 8.3582 18.7078 8.57703C18.4805 8.79586 18.3668 9.12423 18.3668 9.56165V14.8209C18.3668 15.4189 18.2896 15.9187 18.1351 16.3199C17.9809 16.7212 17.7072 17.0323 17.314 17.2536C16.921 17.4748 16.3709 17.5856 15.6634 17.5856C14.6865 17.5856 13.996 17.3609 13.5916 16.9109C13.1872 16.4608 12.9852 15.7791 12.9852 14.8649V9.56165C12.9852 9.11913 12.873 8.78979 12.6483 8.57338C12.4239 8.35698 12.1234 8.2489 11.7472 8.2489C11.3713 8.2489 11.0664 8.35722 10.8335 8.57338C10.6006 8.78979 10.484 9.11937 10.484 9.56165V14.7041C10.484 15.5406 10.578 16.2383 10.7662 16.7974C10.9545 17.3568 11.3093 17.8479 11.8315 18.271C12.2808 18.6309 12.8028 18.8935 13.3978 19.0586C13.9929 19.224 14.6892 19.3066 15.4863 19.3066C16.4352 19.3066 17.252 19.2177 17.9369 19.0404C18.6219 18.8629 19.1805 18.5882 19.6128 18.2163C20.0451 17.8442 20.3623 17.3677 20.5644 16.7865C20.7669 16.2055 20.868 15.5114 20.868 14.7041Z" fill="#EF751C" stroke="#EF751C" stroke-width="0.25" stroke-miterlimit="10"/>
<path d="M15.6762 28.49C14.9731 28.49 14.4031 27.92 14.4031 27.2169C14.4031 26.5137 14.9731 25.9437 15.6762 25.9437C16.3794 25.9437 16.9494 26.5137 16.9494 27.2169C16.9494 27.92 16.3794 28.49 15.6762 28.49Z" fill="#EF751C" stroke="#EF751C" stroke-miterlimit="10"/>
<path d="M20.5646 23.6385C20.3626 23.0573 20.0454 22.5808 19.613 22.2087C19.1807 21.8368 18.6221 21.5619 17.9372 21.3846C17.2523 21.2073 16.4355 21.1184 15.4866 21.1184C14.6894 21.1184 13.9934 21.2012 13.3981 21.3664C12.803 21.5318 12.2808 21.7941 11.8317 22.154C11.3096 22.5771 10.9547 23.0682 10.7665 23.6276C10.5785 24.1867 10.4843 24.8845 10.4843 25.7209V30.8634C10.4843 31.3059 10.6008 31.6355 10.8338 31.8519C11.0669 32.0683 11.3715 32.1763 11.7475 32.1763C12.1237 32.1763 12.4241 32.0683 12.6485 31.8519C12.8732 31.6355 12.9854 31.3059 12.9854 30.8634V25.5604C12.9854 24.6462 13.1875 23.9642 13.5919 23.5144C13.996 23.0646 14.6865 22.8397 15.6636 22.8397C16.3709 22.8397 16.9212 22.9502 17.3142 23.1717C17.7072 23.3929 17.9809 23.7041 18.1354 24.1053C18.2898 24.5065 18.3671 25.0061 18.3671 25.6043V30.8634C18.3671 31.301 18.4807 31.6294 18.7081 31.8482C18.9354 32.0671 19.2429 32.1763 19.6303 32.1763C20.0007 32.1763 20.2997 32.0671 20.5272 31.8482C20.7546 31.6294 20.8682 31.301 20.8682 30.8634V25.7209C20.868 24.9136 20.7669 24.2195 20.5646 23.6385Z" fill="#EF751C" stroke="#EF751C" stroke-width="0.25" stroke-miterlimit="10"/>
</svg>
